<svg width="24" height="25" viewBox="0 0 24 25" fill="none" xmlns="http://www.w3.org/2000/svg">
<path d="M16.5 5.5V3.5M7.5 5.5V3.5M3.25 8.5H20.75M3 10.544C3 8.429 3 7.371 3.436 6.563C3.83025 5.84231 4.44199 5.2645 5.184 4.912C6.04 4.5 7.16 4.5 9.4 4.5H14.6C16.84 4.5 17.96 4.5 18.816 4.912C19.569 5.274 20.18 5.852 20.564 6.562C21 7.372 21 8.43 21 10.545V15.457C21 17.572 21 18.63 20.564 19.438C20.1698 20.1587 19.558 20.7365 18.816 21.089C17.96 21.5 16.84 21.5 14.6 21.5H9.4C7.16 21.5 6.04 21.5 5.184 21.088C4.44214 20.7358 3.83041 20.1583 3.436 19.438C3 18.628 3 17.57 3 15.455V10.544Z" stroke="currentColor" stroke-linecap="round" stroke-linejoin="round"/>
</svg>
