<svg width="17" height="21" viewBox="0 0 17 21" fill="none" xmlns="http://www.w3.org/2000/svg">
<path fill-rule="evenodd" clip-rule="evenodd" d="M15.725 6.51H12.75V5.25H15.9386C16.5229 5.25 17 5.7183 17 6.2958V19.9542C16.9989 20.2312 16.887 20.4966 16.6888 20.6925C16.4906 20.8884 16.2221 20.9989 15.9417 21H1.05825C0.777929 20.9989 0.509409 20.8884 0.311191 20.6925C0.112972 20.4966 0.00111906 20.2312 0 19.9542V6.2958C0.00112336 6.01823 0.113415 5.7524 0.312321 5.55642C0.511227 5.36045 0.780564 5.25028 1.06144 5.25H4.25V6.51H1.275V19.74H15.725V6.51ZM9.1375 11.1478L11.3549 8.9565L12.257 9.84795L9.25119 12.8173C9.05194 13.0142 8.78174 13.1248 8.5 13.1248C8.21826 13.1248 7.94806 13.0142 7.74881 12.8173L4.743 9.849L5.64506 8.95755L7.8625 11.1489V0H9.1375V11.1478Z" fill="currentColor"/>
</svg>
