<svg width="10" height="18" viewBox="0 0 10 18" fill="none" xmlns="http://www.w3.org/2000/svg">
<path d="M5.00054 9.83213C2.56177 9.83213 0.566406 7.83677 0.566406 5.398C0.566406 2.95923 2.56177 0.963867 5.00054 0.963867C7.43931 0.963867 9.43467 2.95923 9.43467 5.398C9.43467 7.83677 7.43931 9.83213 5.00054 9.83213ZM5.00054 3.07008C3.72573 3.07008 2.67262 4.12319 2.67262 5.398C2.67262 6.67281 3.72573 7.72592 5.00054 7.72592C6.27535 7.72592 7.32846 6.67281 7.32846 5.398C7.32846 4.12319 6.27535 3.07008 5.00054 3.07008Z" fill="currentColor"/>
<path d="M9.76669 10.2744C9.37871 9.77551 8.71359 9.72008 8.21475 10.0526C8.21475 10.0526 6.99536 10.9395 5 10.9395C3.00464 10.9395 1.78526 10.0526 1.78526 10.0526C1.28642 9.66466 0.621295 9.77551 0.233308 10.2744C-0.154678 10.7732 -0.043825 11.4383 0.455015 11.8263C0.510442 11.8817 1.6744 12.7686 3.61433 13.0457L0.676722 16.0387C0.233309 16.4821 0.233309 17.2027 0.676722 17.5907C0.898429 17.8124 1.17556 17.9232 1.4527 17.9232C1.72983 17.9232 2.00696 17.8124 2.22867 17.5907L5 14.7639L7.77133 17.5907C7.99304 17.8124 8.27017 17.9232 8.54731 17.9232C8.82444 17.9232 9.10157 17.8124 9.32328 17.5907C9.76669 17.1473 9.76669 16.4821 9.32328 16.0387L6.38567 13.0457C8.3256 12.7131 9.48956 11.8263 9.54499 11.8263C10.0438 11.4383 10.1547 10.7178 9.76669 10.2744Z" fill="currentColor"/>
</svg>
