<svg width="25" height="25" viewBox="0 0 25 25" fill="none" xmlns="http://www.w3.org/2000/svg">
<path d="M14 18.5C14 18.6326 13.9473 18.7598 13.8536 18.8535C13.7598 18.9473 13.6326 19 13.5 19C13.1022 19 12.7206 18.842 12.4393 18.5607C12.158 18.2794 12 17.8978 12 17.5V12.5C12 12.3674 11.9473 12.2402 11.8536 12.1464C11.7598 12.0527 11.6326 12 11.5 12C11.3674 12 11.2402 11.9473 11.1464 11.8536C11.0527 11.7598 11 11.6326 11 11.5C11 11.3674 11.0527 11.2402 11.1464 11.1464C11.2402 11.0527 11.3674 11 11.5 11C11.8978 11 12.2794 11.158 12.5607 11.4393C12.842 11.7206 13 12.1022 13 12.5V17.5C13 17.6326 13.0527 17.7598 13.1464 17.8535C13.2402 17.9473 13.3674 18 13.5 18C13.6326 18 13.7598 18.0527 13.8536 18.1464C13.9473 18.2402 14 18.3674 14 18.5ZM12 8C12.1978 8 12.3911 7.94135 12.5556 7.83147C12.72 7.72159 12.8482 7.56541 12.9239 7.38268C12.9996 7.19996 13.0194 6.99889 12.9808 6.80491C12.9422 6.61093 12.847 6.43274 12.7071 6.29289C12.5673 6.15304 12.3891 6.0578 12.1951 6.01921C12.0011 5.98063 11.8 6.00043 11.6173 6.07612C11.4346 6.15181 11.2784 6.27998 11.1685 6.44443C11.0587 6.60888 11 6.80222 11 7C11 7.26521 11.1054 7.51957 11.2929 7.7071C11.4804 7.89464 11.7348 8 12 8ZM25 12.5C25 14.9723 24.2669 17.389 22.8934 19.4446C21.5199 21.5002 19.5676 23.1024 17.2835 24.0485C14.9995 24.9946 12.4861 25.2421 10.0614 24.7598C7.63661 24.2775 5.40933 23.087 3.66117 21.3388C1.91301 19.5907 0.722505 17.3634 0.24019 14.9386C-0.242126 12.5139 0.00541586 10.0005 0.951511 7.71646C1.89761 5.43238 3.49976 3.48015 5.55538 2.10663C7.61099 0.733112 10.0277 0 12.5 0C15.8141 0.0036395 18.9914 1.32177 21.3348 3.66518C23.6782 6.0086 24.9964 9.18591 25 12.5ZM24 12.5C24 10.2255 23.3255 8.0021 22.0619 6.11094C20.7983 4.21978 19.0022 2.74579 16.9009 1.87538C14.7995 1.00498 12.4872 0.777239 10.2565 1.22097C8.02568 1.6647 5.97658 2.75997 4.36828 4.36827C2.75997 5.97657 1.6647 8.02568 1.22097 10.2565C0.777245 12.4872 1.00498 14.7995 1.87539 16.9009C2.7458 19.0022 4.21978 20.7983 6.11095 22.0619C8.00211 23.3255 10.2255 24 12.5 24C15.549 23.9967 18.4721 22.784 20.6281 20.6281C22.784 18.4721 23.9967 15.549 24 12.5Z" fill="currentColor"/>
</svg>
