<svg width="20" height="17" viewBox="0 0 20 17" fill="none" xmlns="http://www.w3.org/2000/svg">
<path d="M19.4223 0.10775C19.3616 0.05496 19.2877 0.0198791 19.2087 0.00630348C19.1296 -0.00727212 19.0484 0.00117469 18.9737 0.0307298L1.14787 7.05198C0.966152 7.12297 0.812284 7.25149 0.709459 7.41817C0.606635 7.58485 0.560425 7.78065 0.577796 7.97606C0.595167 8.17147 0.675176 8.3559 0.805765 8.50156C0.936354 8.64722 1.11045 8.74621 1.3018 8.78361L6.20465 9.75212V15.2268C6.20463 15.4386 6.2675 15.6455 6.38521 15.8211C6.50291 15.9967 6.67008 16.1328 6.86523 16.2121C6.99081 16.2628 7.12485 16.2889 7.26017 16.2891C7.4018 16.2888 7.54192 16.2598 7.67218 16.2038C7.80244 16.1478 7.92018 16.066 8.01838 15.9633L10.4812 13.396L14.2635 16.7344C14.4552 16.9046 14.7018 16.999 14.9575 17C15.0691 16.9995 15.1801 16.9819 15.2865 16.9478C15.4606 16.8923 15.6172 16.7918 15.7407 16.6563C15.8642 16.5209 15.9502 16.3552 15.9901 16.1758L19.563 0.541543C19.5809 0.46319 19.5773 0.381412 19.5525 0.304987C19.5277 0.228562 19.4827 0.160376 19.4223 0.10775ZM1.27893 7.91248C1.27377 7.86966 1.28336 7.82635 1.30609 7.78978C1.32882 7.75321 1.36332 7.72559 1.40383 7.71152L16.7659 1.66055L6.47469 9.08372L1.43814 8.08865C1.39545 8.08236 1.35625 8.06136 1.32722 8.02924C1.29819 7.99711 1.28112 7.95585 1.27893 7.91248ZM7.51261 15.4711C7.46397 15.5215 7.40151 15.5563 7.3332 15.5708C7.26488 15.5854 7.1938 15.5792 7.129 15.553C7.0642 15.5268 7.00861 15.4818 6.96931 15.4237C6.93001 15.3656 6.90879 15.297 6.90833 15.2268V10.2426L9.94996 12.925L7.51261 15.4711ZM15.3041 16.0147C15.2904 16.0748 15.2615 16.1303 15.22 16.1757C15.1786 16.2211 15.126 16.2548 15.0677 16.2735C15.0093 16.2922 14.9471 16.2952 14.8872 16.2822C14.8273 16.2693 14.7718 16.2409 14.7262 16.1997L7.12207 9.4883L18.7063 1.13292L15.3041 16.0147Z" fill="currentColor"/>
</svg>
