<svg width="16" height="20" viewBox="0 0 16 20" fill="none" xmlns="http://www.w3.org/2000/svg">
<path d="M16 9.24016V18.36C16 18.6624 15.8796 18.9523 15.6653 19.1661C15.4509 19.3799 15.1602 19.5 14.8571 19.5H1.14286C0.839753 19.5 0.549062 19.3799 0.334735 19.1661C0.120408 18.9523 0 18.6624 0 18.36V9.24016C0 8.93782 0.120408 8.64786 0.334735 8.43407C0.549062 8.22028 0.839753 8.10018 1.14286 8.10018H3.42857C3.52961 8.10018 3.6265 8.14021 3.69795 8.21148C3.76939 8.28274 3.80952 8.37939 3.80952 8.48017C3.80952 8.58095 3.76939 8.67761 3.69795 8.74887C3.6265 8.82013 3.52961 8.86017 3.42857 8.86017H1.14286C1.04182 8.86017 0.944926 8.9002 0.873483 8.97146C0.802041 9.04273 0.761905 9.13938 0.761905 9.24016V18.36C0.761905 18.4608 0.802041 18.5575 0.873483 18.6287C0.944926 18.7 1.04182 18.74 1.14286 18.74H14.8571C14.9582 18.74 15.0551 18.7 15.1265 18.6287C15.198 18.5575 15.2381 18.4608 15.2381 18.36V9.24016C15.2381 9.13938 15.198 9.04273 15.1265 8.97146C15.0551 8.9002 14.9582 8.86017 14.8571 8.86017H12.5714C12.4704 8.86017 12.3735 8.82013 12.3021 8.74887C12.2306 8.67761 12.1905 8.58095 12.1905 8.48017C12.1905 8.37939 12.2306 8.28274 12.3021 8.21148C12.3735 8.14021 12.4704 8.10018 12.5714 8.10018H14.8571C15.1602 8.10018 15.4509 8.22028 15.6653 8.43407C15.8796 8.64786 16 8.93782 16 9.24016ZM4.46 4.94908L7.61905 1.79798V11.5201C7.61905 11.6209 7.65918 11.7176 7.73063 11.7888C7.80207 11.8601 7.89897 11.9001 8 11.9001C8.10104 11.9001 8.19793 11.8601 8.26937 11.7888C8.34082 11.7176 8.38095 11.6209 8.38095 11.5201V1.79798L11.54 4.94908C11.5754 4.98438 11.6174 5.01239 11.6637 5.0315C11.7099 5.0506 11.7595 5.06044 11.8095 5.06044C11.8596 5.06044 11.9091 5.0506 11.9554 5.0315C12.0016 5.01239 12.0437 4.98438 12.079 4.94908C12.1144 4.91377 12.1425 4.87186 12.1617 4.82573C12.1808 4.7796 12.1907 4.73016 12.1907 4.68023C12.1907 4.6303 12.1808 4.58086 12.1617 4.53473C12.1425 4.48861 12.1144 4.44669 12.079 4.41139L8.26952 0.611447C8.23414 0.576117 8.19213 0.548089 8.14588 0.528966C8.09964 0.509843 8.05006 0.5 8 0.5C7.94994 0.5 7.90036 0.509843 7.85412 0.528966C7.80787 0.548089 7.76586 0.576117 7.73048 0.611447L3.92095 4.41139C3.88556 4.44669 3.85748 4.48861 3.83833 4.53473C3.81917 4.58086 3.80931 4.6303 3.80931 4.68023C3.80931 4.73016 3.81917 4.7796 3.83833 4.82573C3.85748 4.87186 3.88556 4.91377 3.92095 4.94908C3.99243 5.02038 4.08939 5.06044 4.19048 5.06044C4.24053 5.06044 4.2901 5.0506 4.33634 5.0315C4.38259 5.01239 4.42461 4.98438 4.46 4.94908Z" fill="currentColor"/>
</svg>
