<svg width="18" height="17" viewBox="0 0 18 17" fill="none" xmlns="http://www.w3.org/2000/svg">
<path d="M11.6832 0H6.46476C1.70264 0 0.57373 1.12891 0.57373 5.89103V11.1095C0.57373 15.8716 1.70264 17.0005 6.46476 17.0005H11.6832C16.4454 17.0005 17.5743 15.8716 17.5743 11.1095V5.89103C17.5743 1.12891 16.4342 0 11.6832 0ZM14.298 12.1274H13.0639C12.5964 12.1274 12.4525 11.7566 11.6115 10.9044C10.881 10.1963 10.5575 10.1023 10.3774 10.1023C10.1229 10.1023 10.0507 10.174 10.0507 10.523V11.6381C10.0507 11.9372 9.95667 12.1168 9.1651 12.1168C7.8561 12.1168 6.40367 11.3252 5.38526 9.85044C3.84942 7.68931 3.4292 6.07059 3.4292 5.73591C3.4292 5.55581 3.50092 5.38741 3.84676 5.38741H5.08351C5.39642 5.38741 5.51542 5.53137 5.63707 5.86606C6.24854 7.63141 7.26695 9.17787 7.68717 9.17787C7.84229 9.17787 7.91401 9.10616 7.91401 8.71037V6.88713C7.86673 6.04616 7.4242 5.97391 7.4242 5.67534C7.4242 5.53137 7.5432 5.38741 7.73392 5.38741H9.67882C9.94179 5.38741 10.0385 5.53137 10.0385 5.84109V8.30078C10.0385 8.56641 10.1575 8.66044 10.2292 8.66044C10.3843 8.66044 10.5171 8.56641 10.8045 8.27847C11.6928 7.28238 12.3292 5.74653 12.3292 5.74653C12.4121 5.56644 12.5561 5.39803 12.869 5.39803H14.1057C14.4765 5.39803 14.5594 5.58875 14.4765 5.85438C14.3214 6.57369 12.8079 8.70984 12.8079 8.70984C12.6777 8.92553 12.6278 9.01956 12.8079 9.26022C12.9407 9.44031 13.3726 9.81378 13.66 10.1485C14.1886 10.7488 14.595 11.2524 14.7034 11.6009C14.825 11.9467 14.6455 12.1268 14.2964 12.1268L14.298 12.1274Z" fill="currentColor"/>
</svg>
