<svg width="18" height="17" viewBox="0 0 18 17" fill="none" xmlns="http://www.w3.org/2000/svg">
<path d="M8.65885 16.4163C13.0312 16.4163 16.5755 12.872 16.5755 8.49967C16.5755 4.1273 13.0312 0.583008 8.65885 0.583008C4.28648 0.583008 0.742188 4.1273 0.742188 8.49967C0.742188 9.59138 0.963854 10.6316 1.36285 11.5777C1.58373 12.1002 1.69377 12.3614 1.70802 12.5593C1.72148 12.7573 1.6629 12.9742 1.54652 13.4088L0.742188 16.4163L3.74973 15.612C4.18435 15.4956 4.40127 15.4378 4.59919 15.4505C4.7971 15.4648 5.05835 15.5748 5.58085 15.7957C6.55512 16.206 7.6017 16.417 8.65885 16.4163Z" stroke="currentColor" stroke-linecap="round" stroke-linejoin="round"/>
<path d="M5.95652 8.79781L6.64606 7.94202C6.9366 7.58102 7.29523 7.24535 7.32452 6.76402C7.33086 6.64289 7.24536 6.09822 7.07515 5.0081C7.00786 4.57981 6.60727 4.54102 6.26131 4.54102C5.81006 4.54102 5.58444 4.54102 5.3604 4.64393C5.07698 4.77297 4.78644 5.13635 4.72231 5.44114C4.67165 5.6826 4.70965 5.84885 4.78486 6.18135C5.10311 7.59289 5.85123 8.98702 7.01023 10.1468C8.17002 11.3058 9.56415 12.0539 10.9765 12.3722C11.309 12.4474 11.4744 12.4854 11.7159 12.4347C12.0207 12.3714 12.3841 12.0801 12.5139 11.7966C12.616 11.5726 12.616 11.347 12.616 10.8957C12.616 10.549 12.5772 10.1492 12.1489 10.0819C11.0588 9.91089 10.5141 9.82618 10.393 9.83252C9.91248 9.86102 9.57602 10.2204 9.21502 10.511L8.35923 11.1997" stroke="currentColor" stroke-linecap="round" stroke-linejoin="round"/>
</svg>
