<svg width="90" height="119" viewBox="0 0 90 119" fill="none" xmlns="http://www.w3.org/2000/svg">
<path d="M15.6051 11.8955H82.5206V17.6577H15.6051V11.8955Z" fill="#9C9C9C"/>
<path d="M86.2387 22.3052H15.0852C14.1365 22.2917 13.2004 22.0863 12.3332 21.7012C11.4661 21.3161 10.6859 20.7594 10.0398 20.0646C9.39363 19.3699 8.8949 18.5514 8.57366 17.6586C8.25242 16.7659 8.11532 15.8173 8.17063 14.8701C8.16601 12.9852 8.87751 11.1688 10.1612 9.78851C11.4449 8.40821 13.2049 7.567 15.0852 7.43506H86.2387C87.2247 7.43506 88.1703 7.04339 88.8674 6.34622C89.5646 5.64905 89.9563 4.70348 89.9563 3.71753C89.9563 2.73158 89.5646 1.78601 88.8674 1.08884C88.1703 0.391667 87.2247 0 86.2387 0H15.0852C11.2323 0.134933 7.58244 1.76097 4.90534 4.53517C2.22824 7.30937 0.733214 11.0149 0.735576 14.8701C0.69835 15.4767 0.69835 16.0851 0.735576 16.6917C0.699758 16.988 0.699758 17.2876 0.735576 17.5839V104.091C0.733214 107.946 2.22824 111.652 4.90534 114.426C7.58244 117.2 11.2323 118.826 15.0852 118.961H86.2387C87.2247 118.961 88.1703 118.569 88.8674 117.872C89.5646 117.175 89.9563 116.229 89.9563 115.243V26.2829C89.9584 25.2715 89.5753 24.2973 88.8847 23.5584C88.1941 22.8195 87.248 22.3713 86.2387 22.3052ZM82.5212 111.526H15.0852C13.2049 111.394 11.4449 110.553 10.1612 109.172C8.87751 107.792 8.16601 105.976 8.17063 104.091V28.0673C10.2844 29.2334 12.6722 29.8111 15.0852 29.7402H82.5212V111.526Z" fill="#9C9C9C"/>
</svg>
