<svg width="18" height="18" viewBox="0 0 18 18" fill="none" xmlns="http://www.w3.org/2000/svg">
<g id="codicon:feedback" clip-path="url(#clip0_2438_447)">
<g id="Group">
<path id="Vector" d="M5.0625 1.125L4.5 1.6875V3.40538C4.87389 3.36449 5.25111 3.36449 5.625 3.40538V2.25H15.75V7.875H13.8296L12.375 9.32963V7.875H10.0946C10.1355 8.24889 10.1355 8.62611 10.0946 9H11.25V10.6875L12.2108 11.0858L14.2954 9H16.3125L16.875 8.4375V1.6875L16.3125 1.125H5.0625Z" fill="#ECD06F"/>
<path id="Vector_2" fill-rule="evenodd" clip-rule="evenodd" d="M7.21912 11.7328C7.92854 11.2684 8.46908 10.5874 8.76037 9.79114C9.05165 8.99484 9.0781 8.12578 8.83579 7.31324C8.59348 6.5007 8.09536 5.78808 7.41551 5.28138C6.73566 4.77468 5.9104 4.50098 5.0625 4.50098C4.2146 4.50098 3.38934 4.77468 2.70949 5.28138C2.02964 5.78808 1.53152 6.5007 1.28921 7.31324C1.0469 8.12578 1.07335 8.99484 1.36463 9.79114C1.65592 10.5874 2.19646 11.2684 2.90587 11.7328C2.03697 12.142 1.30237 12.7898 0.787836 13.6008C0.273299 14.4117 5.42594e-05 15.3523 0 16.3127L0 16.8752H1.125V16.3127C1.15953 15.2915 1.5895 14.3236 2.32415 13.6133C3.0588 12.9031 4.04066 12.5061 5.0625 12.5061C6.08434 12.5061 7.0662 12.9031 7.80085 13.6133C8.5355 14.3236 8.96547 15.2915 9 16.3127V16.8752H10.125V16.3127C10.1249 15.3523 9.8517 14.4117 9.33716 13.6008C8.82263 12.7898 8.08803 12.142 7.21912 11.7328ZM5.0625 11.2502C4.31658 11.2502 3.60121 10.9539 3.07376 10.4265C2.54632 9.89901 2.25 9.18364 2.25 8.43772C2.25 7.6918 2.54632 6.97643 3.07376 6.44898C3.60121 5.92154 4.31658 5.62522 5.0625 5.62522C5.80842 5.62522 6.52379 5.92154 7.05124 6.44898C7.57868 6.97643 7.875 7.6918 7.875 8.43772C7.875 9.18364 7.57868 9.89901 7.05124 10.4265C6.52379 10.9539 5.80842 11.2502 5.0625 11.2502Z" fill="#9C9C9C"/>
</g>
</g>
<defs>
<clipPath id="clip0_2438_447">
<rect width="18" height="18" fill="white"/>
</clipPath>
</defs>
</svg>
