<svg width="24" height="24" viewBox="0 0 24 24" fill="none" xmlns="http://www.w3.org/2000/svg">
<g id="Group">
<path id="Vector" d="M10.3408 2.09259C6.1325 2.10024 3.92786 2.20402 2.51965 3.61115C1 5.13298 1 7.57905 1 12.4712C1 17.3634 1 19.8094 2.51965 21.3302C4.04039 22.8498 6.48537 22.8498 11.3797 22.8498C16.2719 22.8498 18.7179 22.8498 20.2376 21.3302C21.6469 19.9209 21.7496 17.7173 21.7572 13.508" stroke="#93824D" stroke-width="1.09249" stroke-linecap="round" stroke-linejoin="round"/>
<path id="Vector_2" d="M10.8933 13.0175C10.1024 3.03874 17.1708 0.209202 22.8277 1.17933C23.056 4.48629 21.4369 5.72407 18.3561 6.29653C18.9515 6.91925 20.0025 7.70147 19.8889 8.67815C19.808 9.37516 19.3361 9.71602 18.39 10.3999C16.3186 11.8966 13.9195 12.8405 10.8933 13.0175Z" stroke="#9C9C9C" stroke-width="1.09249" stroke-linecap="round" stroke-linejoin="round"/>
<path id="Vector_3" d="M8.6474 17.3874C10.8324 11.3788 12.9736 9.34236 15.2023 7.55505" stroke="#9C9C9C" stroke-width="1.09249" stroke-linecap="round" stroke-linejoin="round"/>
</g>
</svg>
