<svg width="243" height="297" viewBox="0 0 243 297" fill="none" xmlns="http://www.w3.org/2000/svg">
<path d="M243 174.129C243 185.437 243 210.312 243 217.096C220.978 189.959 196.312 176.737 180.233 173.195C170.201 170.985 159.947 169.825 149.47 169.714C137.432 169.714 125.951 171.206 115.028 174.189C104.105 177.172 93.8504 181.371 84.2647 186.785C74.6791 192.199 66.0965 198.773 58.5172 206.508C50.9378 214.242 44.3059 222.805 38.6213 232.197C32.9368 241.589 28.7013 251.809 25.9147 262.858C23.1282 273.907 21.6235 285.288 21.4006 297H0C0 280.868 2.39642 265.344 7.18925 250.428C11.9821 235.512 18.8927 221.866 27.9211 209.491C36.9494 197.116 47.7054 186.288 60.1891 177.007C72.6728 167.725 86.8283 160.599 102.656 155.627C96.6369 151.649 91.2868 147.064 86.6054 141.871C81.924 136.677 77.9114 131.042 74.5676 124.965C71.2238 118.888 68.6602 112.48 66.8768 105.74C65.0934 99 64.2017 92.0391 64.2017 84.8571C64.2017 73.1451 66.4309 62.1512 70.8894 51.8756C75.3478 41.5999 81.4782 32.6501 89.2805 25.0262C97.0828 17.4023 106.167 11.3253 116.533 6.7952C126.899 2.26507 137.989 0 149.804 0C161.619 0 172.709 2.20982 183.075 6.62946C193.441 11.0491 202.469 17.1261 210.16 24.8605C217.851 32.5949 223.981 41.5999 228.551 51.8756C233.121 62.1512 235.406 73.1451 235.406 84.8571C235.406 92.0391 234.515 99 232.731 105.74C230.948 112.48 228.44 118.944 225.208 125.131C221.975 131.319 217.907 136.954 213.003 142.036C208.098 147.119 202.692 151.704 196.785 155.792C201.578 157.339 206.203 159.052 210.662 160.93C213.384 162.077 238.542 171.588 243 174.129ZM85.6023 84.8571C85.6023 93.6964 87.2742 101.928 90.618 109.552C93.9619 117.176 98.5318 123.916 104.328 129.772C110.124 135.628 116.923 140.213 124.725 143.528C132.527 146.843 140.887 148.5 149.804 148.5C158.609 148.5 166.913 146.843 174.716 143.528C182.518 140.213 189.317 135.683 195.113 129.938C200.909 124.192 205.535 117.452 208.99 109.718C212.445 101.983 214.117 93.6964 214.006 84.8571C214.006 76.1283 212.334 67.8968 208.99 60.1624C205.646 52.428 201.076 45.6881 195.28 39.9425C189.484 34.197 182.629 29.6116 174.716 26.1864C166.802 22.7612 158.498 21.1038 149.804 21.2143C140.887 21.2143 132.583 22.8717 124.892 26.1864C117.202 29.5011 110.402 34.0312 104.495 39.7768C98.5875 45.5223 93.9619 52.3175 90.618 60.1624C87.2742 68.0073 85.6023 76.2388 85.6023 84.8571Z" fill="#9C9C9C"/>
</svg>
