<svg width="0" height="0" class="hidden">
  <symbol fill="none" xmlns="http://www.w3.org/2000/svg" viewBox="0 0 19 33" id="ic_arr_hor">
    <path d="M0.0344207 16.5165C0.0316684 16.7327 0.0761821 16.947 0.165103 17.1457C0.254023 17.3444 0.385379 17.5231 0.550725 17.6703L16.0399 32.5055C16.7283 33.1648 17.7953 33.1648 18.4837 32.5055C19.1721 31.8462 19.1721 30.8242 18.4837 30.1648L4.19928 16.4835L18.4493 2.83516C19.1377 2.17582 19.1377 1.15384 18.4493 0.494503C17.7609 -0.164837 16.6938 -0.164837 16.0054 0.494503L0.516303 15.3297C0.172101 15.6593 -1.1681e-06 16.0879 -1.18539e-06 16.4835L0.0344207 16.5165Z" fill="currentColor"></path>
  </symbol>
  <symbol fill="none" xmlns="http://www.w3.org/2000/svg" viewBox="0 0 24 25" id="ic_calendar">
    <path d="M16.5 5.5V3.5M7.5 5.5V3.5M3.25 8.5H20.75M3 10.544C3 8.429 3 7.371 3.436 6.563C3.83025 5.84231 4.44199 5.2645 5.184 4.912C6.04 4.5 7.16 4.5 9.4 4.5H14.6C16.84 4.5 17.96 4.5 18.816 4.912C19.569 5.274 20.18 5.852 20.564 6.562C21 7.372 21 8.43 21 10.545V15.457C21 17.572 21 18.63 20.564 19.438C20.1698 20.1587 19.558 20.7365 18.816 21.089C17.96 21.5 16.84 21.5 14.6 21.5H9.4C7.16 21.5 6.04 21.5 5.184 21.088C4.44214 20.7358 3.83041 20.1583 3.436 19.438C3 18.628 3 17.57 3 15.455V10.544Z" stroke="currentColor" stroke-linecap="round" stroke-linejoin="round"></path>
  </symbol>
  <symbol fill="none" xmlns="http://www.w3.org/2000/svg" viewBox="0 0 20 20" id="ic_close">
    <path d="M1 19.3848L19.3848 0.99999" stroke="currentColor" stroke-linecap="round"></path>
    <path d="M1 1L19.3848 19.3848" stroke="currentColor" stroke-linecap="round"></path>
  </symbol>
  <symbol fill="none" xmlns="http://www.w3.org/2000/svg" viewBox="0 0 17 21" id="ic_download">
    <path fill-rule="evenodd" clip-rule="evenodd" d="M15.725 6.51H12.75V5.25H15.9386C16.5229 5.25 17 5.7183 17 6.2958V19.9542C16.9989 20.2312 16.887 20.4966 16.6888 20.6925C16.4906 20.8884 16.2221 20.9989 15.9417 21H1.05825C0.777929 20.9989 0.509409 20.8884 0.311191 20.6925C0.112972 20.4966 0.00111906 20.2312 0 19.9542V6.2958C0.00112336 6.01823 0.113415 5.7524 0.312321 5.55642C0.511227 5.36045 0.780564 5.25028 1.06144 5.25H4.25V6.51H1.275V19.74H15.725V6.51ZM9.1375 11.1478L11.3549 8.9565L12.257 9.84795L9.25119 12.8173C9.05194 13.0142 8.78174 13.1248 8.5 13.1248C8.21826 13.1248 7.94806 13.0142 7.74881 12.8173L4.743 9.849L5.64506 8.95755L7.8625 11.1489V0H9.1375V11.1478Z" fill="currentColor"></path>
  </symbol>
  <symbol fill="none" xmlns="http://www.w3.org/2000/svg" viewBox="0 0 28 21" id="ic_menu">
    <path d="M1 20.5H27" stroke="currentColor" stroke-linecap="round"></path>
    <path d="M1 0.5L27 0.500002" stroke="currentColor" stroke-linecap="round"></path>
    <path d="M1 10.5H27" stroke="currentColor" stroke-linecap="round"></path>
  </symbol>
  <symbol fill="none" xmlns="http://www.w3.org/2000/svg" viewBox="0 0 10 18" id="ic_odnokl">
    <path d="M5.00054 9.83213C2.56177 9.83213 0.566406 7.83677 0.566406 5.398C0.566406 2.95923 2.56177 0.963867 5.00054 0.963867C7.43931 0.963867 9.43467 2.95923 9.43467 5.398C9.43467 7.83677 7.43931 9.83213 5.00054 9.83213ZM5.00054 3.07008C3.72573 3.07008 2.67262 4.12319 2.67262 5.398C2.67262 6.67281 3.72573 7.72592 5.00054 7.72592C6.27535 7.72592 7.32846 6.67281 7.32846 5.398C7.32846 4.12319 6.27535 3.07008 5.00054 3.07008Z" fill="currentColor"></path>
    <path d="M9.76669 10.2744C9.37871 9.77551 8.71359 9.72008 8.21475 10.0526C8.21475 10.0526 6.99536 10.9395 5 10.9395C3.00464 10.9395 1.78526 10.0526 1.78526 10.0526C1.28642 9.66466 0.621295 9.77551 0.233308 10.2744C-0.154678 10.7732 -0.043825 11.4383 0.455015 11.8263C0.510442 11.8817 1.6744 12.7686 3.61433 13.0457L0.676722 16.0387C0.233309 16.4821 0.233309 17.2027 0.676722 17.5907C0.898429 17.8124 1.17556 17.9232 1.4527 17.9232C1.72983 17.9232 2.00696 17.8124 2.22867 17.5907L5 14.7639L7.77133 17.5907C7.99304 17.8124 8.27017 17.9232 8.54731 17.9232C8.82444 17.9232 9.10157 17.8124 9.32328 17.5907C9.76669 17.1473 9.76669 16.4821 9.32328 16.0387L6.38567 13.0457C8.3256 12.7131 9.48956 11.8263 9.54499 11.8263C10.0438 11.4383 10.1547 10.7178 9.76669 10.2744Z" fill="currentColor"></path>
  </symbol>
  <symbol fill="none" xmlns="http://www.w3.org/2000/svg" viewBox="0 0 19 19" id="ic_search">
    <path d="M18 18L13.8983 13.8983M13.8983 13.8983C14.5999 13.1967 15.1565 12.3638 15.5362 11.4471C15.9159 10.5304 16.1113 9.54789 16.1113 8.55566C16.1113 7.56344 15.9159 6.58093 15.5362 5.66424C15.1565 4.74754 14.5999 3.91461 13.8983 3.213C13.1967 2.51139 12.3638 1.95485 11.4471 1.57514C10.5304 1.19543 9.54789 1 8.55566 1C7.56344 1 6.58093 1.19543 5.66424 1.57514C4.74754 1.95485 3.91461 2.51139 3.213 3.213C1.79604 4.62996 1 6.55178 1 8.55566C1 10.5596 1.79604 12.4814 3.213 13.8983C4.62996 15.3153 6.55178 16.1113 8.55566 16.1113C10.5596 16.1113 12.4814 15.3153 13.8983 13.8983Z" stroke="currentColor" stroke-linecap="round" stroke-linejoin="round"></path>
  </symbol>
  <symbol fill="none" xmlns="http://www.w3.org/2000/svg" viewBox="0 0 20 17" id="ic_tg">
    <path d="M19.4223 0.10775C19.3616 0.05496 19.2877 0.0198791 19.2087 0.00630348C19.1296 -0.00727212 19.0484 0.00117469 18.9737 0.0307298L1.14787 7.05198C0.966152 7.12297 0.812284 7.25149 0.709459 7.41817C0.606635 7.58485 0.560425 7.78065 0.577796 7.97606C0.595167 8.17147 0.675176 8.3559 0.805765 8.50156C0.936354 8.64722 1.11045 8.74621 1.3018 8.78361L6.20465 9.75212V15.2268C6.20463 15.4386 6.2675 15.6455 6.38521 15.8211C6.50291 15.9967 6.67008 16.1328 6.86523 16.2121C6.99081 16.2628 7.12485 16.2889 7.26017 16.2891C7.4018 16.2888 7.54192 16.2598 7.67218 16.2038C7.80244 16.1478 7.92018 16.066 8.01838 15.9633L10.4812 13.396L14.2635 16.7344C14.4552 16.9046 14.7018 16.999 14.9575 17C15.0691 16.9995 15.1801 16.9819 15.2865 16.9478C15.4606 16.8923 15.6172 16.7918 15.7407 16.6563C15.8642 16.5209 15.9502 16.3552 15.9901 16.1758L19.563 0.541543C19.5809 0.46319 19.5773 0.381412 19.5525 0.304987C19.5277 0.228562 19.4827 0.160376 19.4223 0.10775ZM1.27893 7.91248C1.27377 7.86966 1.28336 7.82635 1.30609 7.78978C1.32882 7.75321 1.36332 7.72559 1.40383 7.71152L16.7659 1.66055L6.47469 9.08372L1.43814 8.08865C1.39545 8.08236 1.35625 8.06136 1.32722 8.02924C1.29819 7.99711 1.28112 7.95585 1.27893 7.91248ZM7.51261 15.4711C7.46397 15.5215 7.40151 15.5563 7.3332 15.5708C7.26488 15.5854 7.1938 15.5792 7.129 15.553C7.0642 15.5268 7.00861 15.4818 6.96931 15.4237C6.93001 15.3656 6.90879 15.297 6.90833 15.2268V10.2426L9.94996 12.925L7.51261 15.4711ZM15.3041 16.0147C15.2904 16.0748 15.2615 16.1303 15.22 16.1757C15.1786 16.2211 15.126 16.2548 15.0677 16.2735C15.0093 16.2922 14.9471 16.2952 14.8872 16.2822C14.8273 16.2693 14.7718 16.2409 14.7262 16.1997L7.12207 9.4883L18.7063 1.13292L15.3041 16.0147Z" fill="currentColor"></path>
  </symbol>
  <symbol fill="none" xmlns="http://www.w3.org/2000/svg" viewBox="0 0 25 25" id="ic_tooltip">
    <path d="M14 18.5C14 18.6326 13.9473 18.7598 13.8536 18.8535C13.7598 18.9473 13.6326 19 13.5 19C13.1022 19 12.7206 18.842 12.4393 18.5607C12.158 18.2794 12 17.8978 12 17.5V12.5C12 12.3674 11.9473 12.2402 11.8536 12.1464C11.7598 12.0527 11.6326 12 11.5 12C11.3674 12 11.2402 11.9473 11.1464 11.8536C11.0527 11.7598 11 11.6326 11 11.5C11 11.3674 11.0527 11.2402 11.1464 11.1464C11.2402 11.0527 11.3674 11 11.5 11C11.8978 11 12.2794 11.158 12.5607 11.4393C12.842 11.7206 13 12.1022 13 12.5V17.5C13 17.6326 13.0527 17.7598 13.1464 17.8535C13.2402 17.9473 13.3674 18 13.5 18C13.6326 18 13.7598 18.0527 13.8536 18.1464C13.9473 18.2402 14 18.3674 14 18.5ZM12 8C12.1978 8 12.3911 7.94135 12.5556 7.83147C12.72 7.72159 12.8482 7.56541 12.9239 7.38268C12.9996 7.19996 13.0194 6.99889 12.9808 6.80491C12.9422 6.61093 12.847 6.43274 12.7071 6.29289C12.5673 6.15304 12.3891 6.0578 12.1951 6.01921C12.0011 5.98063 11.8 6.00043 11.6173 6.07612C11.4346 6.15181 11.2784 6.27998 11.1685 6.44443C11.0587 6.60888 11 6.80222 11 7C11 7.26521 11.1054 7.51957 11.2929 7.7071C11.4804 7.89464 11.7348 8 12 8ZM25 12.5C25 14.9723 24.2669 17.389 22.8934 19.4446C21.5199 21.5002 19.5676 23.1024 17.2835 24.0485C14.9995 24.9946 12.4861 25.2421 10.0614 24.7598C7.63661 24.2775 5.40933 23.087 3.66117 21.3388C1.91301 19.5907 0.722505 17.3634 0.24019 14.9386C-0.242126 12.5139 0.00541586 10.0005 0.951511 7.71646C1.89761 5.43238 3.49976 3.48015 5.55538 2.10663C7.61099 0.733112 10.0277 0 12.5 0C15.8141 0.0036395 18.9914 1.32177 21.3348 3.66518C23.6782 6.0086 24.9964 9.18591 25 12.5ZM24 12.5C24 10.2255 23.3255 8.0021 22.0619 6.11094C20.7983 4.21978 19.0022 2.74579 16.9009 1.87538C14.7995 1.00498 12.4872 0.777239 10.2565 1.22097C8.02568 1.6647 5.97658 2.75997 4.36828 4.36827C2.75997 5.97657 1.6647 8.02568 1.22097 10.2565C0.777245 12.4872 1.00498 14.7995 1.87539 16.9009C2.7458 19.0022 4.21978 20.7983 6.11095 22.0619C8.00211 23.3255 10.2255 24 12.5 24C15.549 23.9967 18.4721 22.784 20.6281 20.6281C22.784 18.4721 23.9967 15.549 24 12.5Z" fill="currentColor"></path>
  </symbol>
  <symbol fill="none" xmlns="http://www.w3.org/2000/svg" viewBox="0 0 16 20" id="ic_upload">
    <path d="M16 9.24016V18.36C16 18.6624 15.8796 18.9523 15.6653 19.1661C15.4509 19.3799 15.1602 19.5 14.8571 19.5H1.14286C0.839753 19.5 0.549062 19.3799 0.334735 19.1661C0.120408 18.9523 0 18.6624 0 18.36V9.24016C0 8.93782 0.120408 8.64786 0.334735 8.43407C0.549062 8.22028 0.839753 8.10018 1.14286 8.10018H3.42857C3.52961 8.10018 3.6265 8.14021 3.69795 8.21148C3.76939 8.28274 3.80952 8.37939 3.80952 8.48017C3.80952 8.58095 3.76939 8.67761 3.69795 8.74887C3.6265 8.82013 3.52961 8.86017 3.42857 8.86017H1.14286C1.04182 8.86017 0.944926 8.9002 0.873483 8.97146C0.802041 9.04273 0.761905 9.13938 0.761905 9.24016V18.36C0.761905 18.4608 0.802041 18.5575 0.873483 18.6287C0.944926 18.7 1.04182 18.74 1.14286 18.74H14.8571C14.9582 18.74 15.0551 18.7 15.1265 18.6287C15.198 18.5575 15.2381 18.4608 15.2381 18.36V9.24016C15.2381 9.13938 15.198 9.04273 15.1265 8.97146C15.0551 8.9002 14.9582 8.86017 14.8571 8.86017H12.5714C12.4704 8.86017 12.3735 8.82013 12.3021 8.74887C12.2306 8.67761 12.1905 8.58095 12.1905 8.48017C12.1905 8.37939 12.2306 8.28274 12.3021 8.21148C12.3735 8.14021 12.4704 8.10018 12.5714 8.10018H14.8571C15.1602 8.10018 15.4509 8.22028 15.6653 8.43407C15.8796 8.64786 16 8.93782 16 9.24016ZM4.46 4.94908L7.61905 1.79798V11.5201C7.61905 11.6209 7.65918 11.7176 7.73063 11.7888C7.80207 11.8601 7.89897 11.9001 8 11.9001C8.10104 11.9001 8.19793 11.8601 8.26937 11.7888C8.34082 11.7176 8.38095 11.6209 8.38095 11.5201V1.79798L11.54 4.94908C11.5754 4.98438 11.6174 5.01239 11.6637 5.0315C11.7099 5.0506 11.7595 5.06044 11.8095 5.06044C11.8596 5.06044 11.9091 5.0506 11.9554 5.0315C12.0016 5.01239 12.0437 4.98438 12.079 4.94908C12.1144 4.91377 12.1425 4.87186 12.1617 4.82573C12.1808 4.7796 12.1907 4.73016 12.1907 4.68023C12.1907 4.6303 12.1808 4.58086 12.1617 4.53473C12.1425 4.48861 12.1144 4.44669 12.079 4.41139L8.26952 0.611447C8.23414 0.576117 8.19213 0.548089 8.14588 0.528966C8.09964 0.509843 8.05006 0.5 8 0.5C7.94994 0.5 7.90036 0.509843 7.85412 0.528966C7.80787 0.548089 7.76586 0.576117 7.73048 0.611447L3.92095 4.41139C3.88556 4.44669 3.85748 4.48861 3.83833 4.53473C3.81917 4.58086 3.80931 4.6303 3.80931 4.68023C3.80931 4.73016 3.81917 4.7796 3.83833 4.82573C3.85748 4.87186 3.88556 4.91377 3.92095 4.94908C3.99243 5.02038 4.08939 5.06044 4.19048 5.06044C4.24053 5.06044 4.2901 5.0506 4.33634 5.0315C4.38259 5.01239 4.42461 4.98438 4.46 4.94908Z" fill="currentColor"></path>
  </symbol>
  <symbol fill="none" xmlns="http://www.w3.org/2000/svg" viewBox="0 0 18 17" id="ic_vk">
    <path d="M11.6832 0H6.46476C1.70264 0 0.57373 1.12891 0.57373 5.89103V11.1095C0.57373 15.8716 1.70264 17.0005 6.46476 17.0005H11.6832C16.4454 17.0005 17.5743 15.8716 17.5743 11.1095V5.89103C17.5743 1.12891 16.4342 0 11.6832 0ZM14.298 12.1274H13.0639C12.5964 12.1274 12.4525 11.7566 11.6115 10.9044C10.881 10.1963 10.5575 10.1023 10.3774 10.1023C10.1229 10.1023 10.0507 10.174 10.0507 10.523V11.6381C10.0507 11.9372 9.95667 12.1168 9.1651 12.1168C7.8561 12.1168 6.40367 11.3252 5.38526 9.85044C3.84942 7.68931 3.4292 6.07059 3.4292 5.73591C3.4292 5.55581 3.50092 5.38741 3.84676 5.38741H5.08351C5.39642 5.38741 5.51542 5.53137 5.63707 5.86606C6.24854 7.63141 7.26695 9.17787 7.68717 9.17787C7.84229 9.17787 7.91401 9.10616 7.91401 8.71037V6.88713C7.86673 6.04616 7.4242 5.97391 7.4242 5.67534C7.4242 5.53137 7.5432 5.38741 7.73392 5.38741H9.67882C9.94179 5.38741 10.0385 5.53137 10.0385 5.84109V8.30078C10.0385 8.56641 10.1575 8.66044 10.2292 8.66044C10.3843 8.66044 10.5171 8.56641 10.8045 8.27847C11.6928 7.28238 12.3292 5.74653 12.3292 5.74653C12.4121 5.56644 12.5561 5.39803 12.869 5.39803H14.1057C14.4765 5.39803 14.5594 5.58875 14.4765 5.85438C14.3214 6.57369 12.8079 8.70984 12.8079 8.70984C12.6777 8.92553 12.6278 9.01956 12.8079 9.26022C12.9407 9.44031 13.3726 9.81378 13.66 10.1485C14.1886 10.7488 14.595 11.2524 14.7034 11.6009C14.825 11.9467 14.6455 12.1268 14.2964 12.1268L14.298 12.1274Z" fill="currentColor"></path>
  </symbol>
  <symbol fill="none" xmlns="http://www.w3.org/2000/svg" viewBox="0 0 18 17" id="ic_whatsapp">
    <path d="M8.65885 16.4163C13.0312 16.4163 16.5755 12.872 16.5755 8.49967C16.5755 4.1273 13.0312 0.583008 8.65885 0.583008C4.28648 0.583008 0.742188 4.1273 0.742188 8.49967C0.742188 9.59138 0.963854 10.6316 1.36285 11.5777C1.58373 12.1002 1.69377 12.3614 1.70802 12.5593C1.72148 12.7573 1.6629 12.9742 1.54652 13.4088L0.742188 16.4163L3.74973 15.612C4.18435 15.4956 4.40127 15.4378 4.59919 15.4505C4.7971 15.4648 5.05835 15.5748 5.58085 15.7957C6.55512 16.206 7.6017 16.417 8.65885 16.4163Z" stroke="currentColor" stroke-linecap="round" stroke-linejoin="round"></path>
    <path d="M5.95652 8.79781L6.64606 7.94202C6.9366 7.58102 7.29523 7.24535 7.32452 6.76402C7.33086 6.64289 7.24536 6.09822 7.07515 5.0081C7.00786 4.57981 6.60727 4.54102 6.26131 4.54102C5.81006 4.54102 5.58444 4.54102 5.3604 4.64393C5.07698 4.77297 4.78644 5.13635 4.72231 5.44114C4.67165 5.6826 4.70965 5.84885 4.78486 6.18135C5.10311 7.59289 5.85123 8.98702 7.01023 10.1468C8.17002 11.3058 9.56415 12.0539 10.9765 12.3722C11.309 12.4474 11.4744 12.4854 11.7159 12.4347C12.0207 12.3714 12.3841 12.0801 12.5139 11.7966C12.616 11.5726 12.616 11.347 12.616 10.8957C12.616 10.549 12.5772 10.1492 12.1489 10.0819C11.0588 9.91089 10.5141 9.82618 10.393 9.83252C9.91248 9.86102 9.57602 10.2204 9.21502 10.511L8.35923 11.1997" stroke="currentColor" stroke-linecap="round" stroke-linejoin="round"></path>
  </symbol>
</svg>